#!OML:ASF E:\Style3\Style3.ASF
:FULLY-SPECIFIED
:DEGREES
3158
root 0.32595 17.8045 0.441165 -168.544 76.5056 -181.923
lowerback -9.50453 -1.3381 -1.97223
upperback -9.34775 -1.10823 0.581121
thorax -4.37973 -0.191624 1.62962
lowerneck -1.62767 -0.3712 -6.12287
upperneck 12.2749 -1.31146 13.6524
head 3.99955 -0.104034 5.20855
rclavicle -1.01753e-014 2.23633e-015
rhumerus 65.4219 -34.5853 -38.1135
rradius 121.941
rwrist -42.3982
rhand -15.6767 0.351031
rfingers 7.12502
rthumb 10.512 -29.3661
lclavicle -1.01753e-014 2.23633e-015
lhumerus 59.2829 23.8449 29.9125
lradius 124.753
lwrist 94.6825
lhand -17.9856 32.984
lfingers 7.12502
lthumb 8.28426 62.8015
rfemur -12.9834 7.95342 16.337
rtibia 17.9997
rfoot -15.1663 -28.61
rtoes -8.20275
lfemur -7.96982 -24.8779 -11.5227
ltibia 1.11319e-014
lfoot -5.8266 16.8937
ltoes -23.4462
3159
root 0.328285 17.805 0.442369 -168.395 76.5065 -181.791
lowerback -9.51616 -1.35483 -1.9851
upperback -9.36001 -1.12779 0.601158
thorax -4.38511 -0.199302 1.65648
lowerneck -1.59071 -0.391902 -6.17003
upperneck 12.3401 -1.34366 13.6677
head 4.01613 -0.119671 5.22166
rclavicle -1.00635e-015 1.29707e-014
rhumerus 65.4105 -34.6686 -37.9757
rradius 121.82
rwrist -42.6763
rhand -15.4966 0.216228
rfingers 7.12502
rthumb 10.6858 -29.492
lclavicle -1.00635e-015 1.29707e-014
lhumerus 59.5061 23.9939 30.0101
lradius 124.597
lwrist 95.4236
lhand -18.1452 33.4447
lfingers 7.12502
lthumb 8.13018 63.2683
rfemur -13.0082 7.94543 16.3764
rtibia 18.0196
rfoot -15.266 -28.5829
rtoes -8.10761
lfemur -7.97748 -24.8663 -11.4781
ltibia 1.59028e-015
lfoot -5.92011 16.8963
ltoes -23.0315
3160
root 0.330029 17.8045 0.444004 -168.409 76.5243 -181.809
lowerback -9.50765 -1.35765 -2.03643
upperback -9.37344 -1.12761 0.609642
thorax -4.40329 -0.195223 1.69426
lowerneck -1.53627 -0.412519 -6.22283
upperneck 12.4051 -1.37651 13.6958
head 4.02977 -0.135508 5.23979
rclavicle -2.71714e-014 -3.23025e-015
rhumerus 65.4397 -34.7869 -37.8664
rradius 121.731
rwrist -42.8939
rhand -15.3679 -0.336595
rfingers 7.12502
rthumb 10.8099 -30.0384
lclavicle -2.71714e-014 -3.23025e-015
lhumerus 59.7399 24.0351 30.1262
lradius 124.498
lwrist 96.0047
lhand -18.4254 34.0018
lfingers 7.12502
lthumb 7.85975 63.8357
rfemur -13.0104 7.97852 16.3737
rtibia 18.0349
rfoot -15.3273 -28.5815
rtoes -7.95472
lfemur -7.96151 -24.8476 -11.4783
ltibia 2.8625e-014
lfoot -5.99985 16.8767
ltoes -22.8338
3161
root 0.331144 17.8039 0.442142 -168.591 76.5484 -181.98
lowerback -9.47321 -1.35784 -2.07227
upperback -9.39253 -1.12614 0.594911
thorax -4.44248 -0.191887 1.69962
lowerneck -1.52751 -0.427359 -6.29403
upperneck 12.5024 -1.4073 13.7828
head 4.06078 -0.145182 5.28091
rclavicle -1.67973e-014 1.05356e-014
rhumerus 65.4169 -34.8848 -37.7117
rradius 121.673
rwrist -43.1297
rhand -15.267 -1.01008
rfingers 7.12502
rthumb 10.9072 -30.7068
lclavicle -1.67973e-014 1.05356e-014
lhumerus 59.9568 24.058 30.2016
lradius 124.436
lwrist 96.6363
lhand -18.7302 34.6553
lfingers 7.12502
lthumb 7.56561 64.5
rfemur -12.9928 7.93896 16.3271
rtibia 18.0289
rfoot -15.2156 -28.5842
rtoes -8.03004
lfemur -7.93168 -24.8369 -11.5421
ltibia 3.18055e-015
lfoot -6.04962 16.8649
ltoes -22.6962
3162
root 0.331678 17.8036 0.440905 -168.536 76.5633 -181.936
lowerback -9.46971 -1.36426 -2.07658
upperback -9.41991 -1.13201 0.605521
thorax -4.47332 -0.192556 1.71293
lowerneck -1.46691 -0.417435 -6.29291
upperneck 12.5295 -1.39615 13.785
head 4.05722 -0.1399 5.2823
rclavicle 2.33448e-014 2.18663e-015
rhumerus 65.3331 -34.9302 -37.4913
rradius 121.527
rwrist -43.295
rhand -15.1209 -1.42028
rfingers 7.12502
rthumb 11.0481 -31.1095
lclavicle 2.33448e-014 2.18663e-015
lhumerus 60.1205 24.0973 30.2094
lradius 124.401
lwrist 97.3165
lhand -19.024 35.3765
lfingers 7.12502
lthumb 7.28203 65.2312
rfemur -12.9931 7.88133 16.334
rtibia 18.0038
rfoot -15.1732 -28.5121
rtoes -8.22293
lfemur -7.94191 -24.8216 -11.5433
ltibia -1.11319e-014
lfoot -5.88423 16.8749
ltoes -23.5026
3163
root 0.334167 17.8044 0.442182 -168.518 76.5897 -181.935
lowerback -9.48466 -1.35621 -2.14254
upperback -9.45933 -1.11327 0.607812
thorax -4.50731 -0.1767 1.75324
lowerneck -1.41496 -0.414379 -6.32814
upperneck 12.6085 -1.40115 13.8521
head 4.07248 -0.137914 5.31135
rclavicle 2.74074e-014 4.52235e-015
rhumerus 65.1587 -35.0451 -37.2165
rradius 121.393
rwrist -43.506
rhand -14.93 -1.82777
rfingers 7.12502
rthumb 11.2322 -31.5071
lclavicle 2.74074e-014 4.52235e-015
lhumerus 60.2388 24.0641 30.107
lradius 124.388
lwrist 97.8822
lhand -19.5193 35.7965
lfingers 7.12502
lthumb 6.80391 65.6672
rfemur -13.0158 7.99123 16.321
rtibia 17.9804
rfoot -14.8145 -28.6417
rtoes -8.89883
lfemur -7.94915 -24.7924 -11.5384
ltibia 1.59028e-015
lfoot -5.79136 16.8631
ltoes -24.0285
3164
root 0.336764 17.8043 0.444235 -168.444 76.6159 -181.841
lowerback -9.48449 -1.34515 -2.18451
upperback -9.46781 -1.09574 0.594733
thorax -4.51695 -0.165363 1.76412
lowerneck -1.33606 -0.416171 -6.36725
upperneck 12.6134 -1.41362 13.9852
head 4.06173 -0.139563 5.36045
rclavicle 2.17234e-014 1.90833e-014
rhumerus 65.0433 -35.2213 -37.0409
rradius 121.283
rwrist -43.885
rhand -14.9345 -2.22231
rfingers 7.12502
rthumb 11.228 -31.9018
lclavicle 2.17234e-014 1.90833e-014
lhumerus 60.3488 24.0853 29.934
lradius 124.414
lwrist 98.3798
lhand -20.0517 36.2083
lfingers 7.12502
lthumb 6.28995 66.0949
rfemur -13.0012 8.10859 16.341
rtibia 17.9644
rfoot -14.3141 -28.7895
rtoes -9.89193
lfemur -7.90245 -24.7619 -11.5187
ltibia -1.27222e-014
lfoot -6.07429 16.8391
ltoes -22.9319
3165
root 0.337553 17.8044 0.444346 -168.221 76.6262 -181.586
lowerback -9.447 -1.36393 -2.16289
upperback -9.46033 -1.12379 0.626203
thorax -4.52799 -0.180301 1.78378
lowerneck -1.36455 -0.40351 -6.38982
upperneck 12.6798 -1.40459 14.0443
head 4.08554 -0.129243 5.38524
rclavicle -1.36913e-014 -2.28602e-015
rhumerus 65.0825 -35.3064 -36.997
rradius 121.196
rwrist -44.3489
rhand -14.9717 -2.45412
rfingers 7.12502
rthumb 11.192 -32.1356
lclavicle -1.36913e-014 -2.28602e-015
lhumerus 60.4298 24.1841 29.8158
lradius 124.389
lwrist 98.7715
lhand -20.6105 36.6918
lfingers 7.12502
lthumb 5.75045 66.5937
rfemur -12.9559 8.14061 16.4128
rtibia 17.964
rfoot -14.8797 -28.693
rtoes -8.67119
lfemur -7.85965 -24.7421 -11.4695
ltibia -3.49861e-014
lfoot -6.30034 16.8506
ltoes -22.0714
3166
root 0.337015 17.8051 0.444495 -168.313 76.6779 -181.657
lowerback -9.38913 -1.35464 -2.19043
upperback -9.4566 -1.11365 0.605653
thorax -4.55626 -0.174793 1.77913
lowerneck -1.38965 -0.403042 -6.29413
upperneck 12.7204 -1.40456 13.9807
head 4.10174 -0.125544 5.34913
rclavicle 1.70209e-015 -8.24956e-015
rhumerus 65.078 -35.4623 -36.9621
rradius 121.127
rwrist -44.8606
rhand -14.8653 -2.74591
rfingers 7.12502
rthumb 11.2946 -32.4218
lclavicle 1.70209e-015 -8.24956e-015
lhumerus 60.5828 24.2095 29.6948
lradius 124.371
lwrist 99.0987
lhand -21.2126 37.0572
lfingers 7.12502
lthumb 5.16904 66.9742
rfemur -12.9325 8.10703 16.4021
rtibia 17.9829
rfoot -15.3154 -28.5442
rtoes -7.84222
lfemur -7.82063 -24.6991 -11.5116
ltibia -1.90833e-014
lfoot -6.18282 16.8444
ltoes -22.3309
3167
root 0.337521 17.8047 0.443176 -168.631 76.7177 -182.001
lowerback -9.38965 -1.33078 -2.23317
upperback -9.4707 -1.07974 0.548058
thorax -4.57308 -0.156356 1.74489
lowerneck -1.37575 -0.429986 -6.32258
upperneck 12.7499 -1.44413 14.0052
head 4.11253 -0.143945 5.36111
rclavicle -4.78077e-014 -2.50966e-015
rhumerus 64.9511 -35.6008 -36.7798
rradius 121.005
rwrist -45.2105
rhand -14.9758 -2.9779
rfingers 7.12502
rthumb 11.1881 -32.6596
lclavicle -4.78077e-014 -2.50966e-015
lhumerus 60.7727 24.161 29.5774
lradius 124.33
lwrist 99.2578
lhand -21.703 37.3354
lfingers 7.12502
lthumb 4.69556 67.2634
rfemur -12.9699 8.01668 16.309
rtibia 18.0091
rfoot -15.2005 -28.4684
rtoes -8.16813
lfemur -7.82742 -24.6779 -11.6098
ltibia 1.43125e-014
lfoot -6.0414 16.8386
ltoes -22.7364
3168
root 0.339661 17.805 0.442622 -168.687 76.7586 -182.087
lowerback -9.43482 -1.32909 -2.27398
upperback -9.48496 -1.07202 0.548159
thorax -4.56337 -0.149165 1.76772
lowerneck -1.38299 -0.433445 -6.44309
upperneck 12.8101 -1.45603 14.0978
head 4.13341 -0.147877 5.41279
rclavicle -8.1626e-015 -1.48343e-014
rhumerus 64.8624 -35.6514 -36.6121
rradius 120.87
rwrist -45.4527
rhand -15.2347 -3.12398
rfingers 7.12502
rthumb 10.9384 -32.819
lclavicle -8.1626e-015 -1.48343e-014
lhumerus 60.8512 24.1563 29.433
lradius 124.258
lwrist 99.3752
lhand -22.2323 37.7124
lfingers 7.12502
lthumb 4.1845 67.6511
rfemur -13.0156 8.01423 16.2736
rtibia 18.0343
rfoot -15.1938 -28.4486
rtoes -8.25225
lfemur -7.8453 -24.64 -11.6359
ltibia 4.77083e-015
lfoot -6.00373 16.8549
ltoes -22.9211
3169
root 0.34052 17.8054 0.442274 -168.588 76.7848 -181.962
lowerback -9.40725 -1.34436 -2.24208
upperback -9.49848 -1.09456 0.549464
thorax -4.59243 -0.161632 1.75042
lowerneck -1.39074 -0.408858 -6.42858
upperneck 12.9109 -1.42794 14.0785
head 4.16178 -0.130087 5.40735
rclavicle -1.17159e-014 4.07509e-015
rhumerus 64.8137 -35.6681 -36.5659
rradius 120.782
rwrist -45.7157
rhand -15.288 -3.45904
rfingers 7.12502
rthumb 10.887 -33.1568
lclavicle -1.17159e-014 4.07509e-015
lhumerus 60.8963 24.1525 29.2371
lradius 124.178
lwrist 99.5311
lhand -22.8443 38.3074
lfingers 7.12502
lthumb 3.59344 68.2569
rfemur -12.987 8.01192 16.3095
rtibia 18.0232
rfoot -15.1393 -28.4496
rtoes -8.41509
lfemur -7.80782 -24.6121 -11.6255
ltibia 2.38542e-014
lfoot -5.93042 16.8631
ltoes -23.2962
